<?xml version="1.0" standalone="no"?>
<!DOCTYPE svg PUBLIC "-//W3C//DTD SVG 1.1//EN" "http://www.w3.org/Graphics/SVG/1.1/DTD/svg11.dtd" >
<svg xmlns="http://www.w3.org/2000/svg">
<metadata>Generated by IcoMoon</metadata>
<defs>
<font id="icomoon" horiz-adv-x="1024">
<font-face units-per-em="1024" ascent="960" descent="-64" />
<missing-glyph horiz-adv-x="1024" />
<glyph unicode="&#x20;" horiz-adv-x="512" d="" />
<glyph unicode="&#xe600;" glyph-name="briefcase" d="M1024 694.784v-177.152c-6.656-28.16-21.504-54.272-43.52-75.776-30.72-29.696-72.192-46.080-116.224-46.080h-275.456v53.76c0 23.040-18.432 41.472-41.472 41.472h-70.656c-23.040 0-41.472-18.432-41.472-41.472v-53.76h-275.968c-44.032 0-84.992 16.384-116.224 46.080-22.016 20.992-36.864 47.104-43.52 75.776v177.152c0 38.4 31.232 69.632 69.632 69.632h885.248c38.4 0 69.632-31.232 69.632-69.632zM547.328 300.544c3.584 0 6.656 3.072 6.656 6.656v142.336c0 3.584-3.072 6.656-6.656 6.656h-70.656c-3.584 0-6.656-3.072-6.656-6.656v-142.336c0-3.584 3.072-6.656 6.656-6.656h70.656zM1004.544 416.768c-37.376-35.84-87.040-55.808-140.288-55.808h-275.456v-53.76c0-22.528-18.432-41.472-41.472-41.472h-70.656c-23.040 0-41.472 18.432-41.472 41.472v53.76h-275.968c-52.736 0-102.4 19.968-140.288 55.808-7.168 6.656-13.824 14.336-19.456 21.504v-376.32c0-38.4 31.232-69.632 69.632-69.632h885.248c38.4 0 69.632 31.232 69.632 69.632v376.32c-5.632-7.168-12.288-14.336-19.456-21.504zM672.256 882.688c-13.824 13.824-31.232 20.48-49.152 20.48h-222.208c-17.92 0-35.84-6.656-49.152-20.48s-20.48-31.232-20.48-49.152v-34.816h58.88v34.816c0 2.048 0.512 4.608 3.072 7.168s5.632 3.072 7.168 3.072h222.208c2.048 0 4.608-0.512 7.168-3.072s3.072-5.632 3.072-7.168v-34.816h58.88v34.816c1.024 17.92-6.144 35.84-19.456 49.152z" />
<glyph unicode="&#xe601;" glyph-name="google" d="M512 47.2c-220.8 0-400.8 180-400.8 400.8s180 400.8 400.8 400.8c220.8 0 400.8-180 400.8-400.8s-180-400.8-400.8-400.8zM512 816.8c-203.2 0-368.8-165.6-368.8-368.8s165.6-368.8 368.8-368.8c203.2 0 368.8 165.6 368.8 368.8s-165.6 368.8-368.8 368.8zM412.8 432.8c-56.8 0-104 46.4-104 104s46.4 104 104 104c56.8 0 104-46.4 104-104s-46.4-104-104-104zM412.8 608c-39.2 0-72-32-72-72s32-72 72-72c39.2 0 72 32 72 72s-32 72-72 72zM434.4 230.4c-45.6 0-82.4 36.8-82.4 82.4s36.8 82.4 82.4 82.4c45.6 0 82.4-36.8 82.4-82.4s-36.8-82.4-82.4-82.4zM434.4 363.2c-28 0-50.4-22.4-50.4-50.4s22.4-50.4 50.4-50.4c28 0 50.4 22.4 50.4 50.4 0 27.2-22.4 50.4-50.4 50.4zM479.2 344.8c-4 0-7.2 1.6-10.4 4l-129.6 115.2c-6.4 5.6-7.2 16-1.6 22.4s16 7.2 22.4 1.6l130.4-115.2c6.4-5.6 7.2-16 1.6-22.4-4-3.2-8-5.6-12.8-5.6zM469.6 587.2c-4 0-8 1.6-11.2 4.8-6.4 6.4-6.4 16 0 22.4l46.4 46.4c6.4 6.4 16 6.4 22.4 0s6.4-16 0-22.4l-46.4-46.4c-3.2-3.2-7.2-4.8-11.2-4.8zM637.6 388.8c-8.8 0-16 7.2-16 16v122.4c0 8.8 7.2 16 16 16s16-7.2 16-16v-122.4c0-8.8-7.2-16-16-16zM698.4 449.6h-122.4c-8.8 0-16 7.2-16 16s7.2 16 16 16h122.4c8.8 0 16-7.2 16-16s-7.2-16-16-16z" />
<glyph unicode="&#xe602;" glyph-name="convo" d="M803.84 357.888c-2.56 12.288-9.728 23.552-20.48 33.28-10.752 9.216-24.064 14.848-37.376 16.896l-218.624 42.496 63.488-41.984-99.84-313.344-56.32 232.96-56.32-232.96-99.84 313.344 63.488 41.984-218.624-42.496c-13.824-2.048-26.624-7.68-37.376-16.896s-17.408-20.992-20.48-33.28l-65.536-284.672 122.368-42.496c40.448-41.984 154.624-73.216 290.816-76.288h42.496c136.192 3.072 250.368 33.792 290.816 76.288l122.368 42.496-65.024 284.672zM434.176 418.816l-50.176-18.432 50.176-72.704 50.688 72.704zM621.568 699.392c0 129.536-53.248 230.912-187.392 230.912s-187.392-101.376-187.392-230.912c-13.824-7.168-23.040-24.576-9.216-61.44 7.168-18.432 19.456-33.792 29.696-41.984 38.4-95.232 113.152-168.448 166.912-168.448s129.024 73.216 166.912 168.448c10.24 8.192 22.528 23.552 29.696 41.984 14.336 36.864 5.12 53.76-9.216 61.44zM754.176 750.080h-99.328c0.512-5.632 1.024-11.264 1.536-17.408h97.792v17.408zM955.392 809.472h-312.32c1.536-5.632 3.072-11.264 4.608-17.408h307.712v17.408zM1012.224 929.792c-7.68 7.68-17.92 11.776-28.672 11.776h-442.368c19.456-10.24 36.864-23.552 52.224-40.448h390.656v-281.6h-107.52l-81.408-81.408v81.408h-132.608c-6.144-14.848-15.36-28.672-25.6-40.448h117.248v-110.592c0-4.608 2.56-8.704 7.168-10.752s9.216-0.512 12.288 2.56l118.784 118.784h91.136c10.24 0 20.48 4.096 28.672 11.776 7.68 7.68 11.776 17.92 11.776 28.672v281.6c0 10.752-4.096 20.992-11.776 28.672zM955.392 868.864h-337.92c3.584-5.632 6.656-11.264 9.216-17.408h328.704v17.408z" />
<glyph unicode="&#xe603;" glyph-name="dart" d="M545.792 637.44c-22.016-25.088-37.376-49.664-45.568-74.752-2.56-7.68-4.608-15.36-5.632-23.040-11.264 2.56-23.040 4.096-35.328 4.096-81.92 0-148.48-66.56-148.48-148.48s66.56-148.48 148.48-148.48c81.92 0 148.48 66.56 148.48 148.48 0 12.288-1.536 24.064-4.096 35.328 31.232 4.608 64.512 21.504 97.28 50.688 9.728-27.136 14.848-55.808 14.848-86.016 0-141.824-115.2-257.024-257.024-257.024s-257.024 115.2-257.024 257.024c0 141.824 115.2 256.512 257.024 256.512 30.72 0.512 59.904-4.608 87.040-14.336zM833.024 663.040c-19.968-38.912-40.96-73.728-62.464-103.424 26.112-49.152 40.448-104.96 40.448-163.84 0-193.536-157.696-351.232-351.232-351.232s-351.232 157.696-351.232 351.232c0 193.536 157.696 351.232 351.232 351.232 59.392 0 115.2-14.848 163.84-40.96 30.208 21.504 64.512 42.496 103.424 62.464-75.264 54.272-167.936 86.016-267.776 86.016-253.44 0-459.264-206.336-459.264-459.264 0-253.44 206.336-459.264 459.264-459.264 253.44 0 459.264 206.336 459.264 459.264 0.512 99.84-31.744 192.512-85.504 267.776zM472.576 461.824c-4.096 1.024-8.704 1.536-13.312 1.536-37.376 0-67.584-30.208-67.584-67.584s30.208-67.584 67.584-67.584c37.376 0 67.584 30.208 67.584 67.584 0 4.608-0.512 8.704-1.024 13.312l-46.080-35.84c-5.12-4.096-12.288-6.656-18.944-6.656-8.192 0-15.872 3.072-21.504 9.216-10.752 10.752-11.776 28.16-2.56 40.448l35.84 45.568zM863.232 775.68c34.816-7.168 108.544-16.384 142.848 17.408 51.712 51.712-19.456 129.536-68.608 80.384 49.152 49.152-28.672 120.32-80.384 68.608-34.304-34.304-24.576-108.032-17.408-142.848l-17.408-17.408c-247.808-103.936-329.216-226.816-290.816-290.816l-71.68-92.16c-0.512-1.024-0.512-2.048 0-3.072 1.024-1.024 2.048-1.024 3.072 0l92.16 71.68c64.512-37.888 186.88 43.008 290.816 290.816l17.408 17.408z" />
<glyph unicode="&#xe604;" glyph-name="handshake" d="M857.088 422.4l-100.352 201.216c-1.024 2.048-2.56 4.096-4.608 6.144-2.048 1.536-4.096 3.072-6.144 3.584l-117.76 42.496c-8.192 3.072-16.896 4.608-26.112 4.608s-17.92-2.048-26.112-5.12l-89.6-34.304c-6.144-2.56-12.288-5.12-18.944-8.192-2.048-1.024-4.096-2.048-6.144-3.584-6.656 3.584-13.824 6.656-20.992 9.728-23.552 8.704-47.616 11.776-70.656 9.728l-59.904-5.12c-2.56 0-5.12-1.024-7.68-2.56s-4.608-3.584-6.144-5.632l-135.68-192.512c-2.56-4.096-4.096-9.216-3.584-14.336s2.56-10.24 6.144-13.312l58.88-58.368c-3.072-6.144-5.12-12.8-5.632-19.456-1.024-12.8 3.584-25.088 11.776-34.816s19.968-15.36 32.768-16.384c0.512 0 1.536 0 2.048 0-5.12-16.896-1.024-36.352 12.8-49.152 8.192-7.68 18.432-12.288 29.696-12.8-7.168-17.92-3.072-38.912 11.264-52.736 8.704-8.704 20.48-13.312 32.768-13.312 12.8 0 24.576 5.12 33.792 13.824 3.584-21.504 21.504-38.912 44.032-40.448 1.024 0 2.048 0 3.072 0 5.632 0 11.264 1.024 16.384 3.072 8.704-5.632 18.432-8.704 29.184-8.192 13.312 0.512 25.088 6.144 33.792 15.36l-32.256 32.256c0 0.512 0 1.536 0 2.048 0.512 6.144-0.512 12.288-2.56 18.432l66.048-66.048c8.192-3.584 17.408-5.12 27.136-4.608 18.944 1.024 35.84 9.728 47.616 23.552l6.656 7.68c0.512 0.512 1.024 1.536 1.536 2.56l-101.888 101.888c-2.56 2.56-3.072 7.168-0.512 9.728s6.144 2.56 9.216 0l121.344-120.832c6.656-2.56 13.824-3.584 20.992-3.072 16.896 0.512 31.744 8.704 41.984 20.992l15.872 18.432c3.584 4.096 5.632 10.24 5.632 16.384l-106.496 105.984c-2.56 2.56-3.072 7.168-0.512 9.728s6.144 2.56 9.216 0l107.008-106.496c4.608-1.024 9.216-1.536 13.824-1.536 13.824 0.512 25.6 7.168 34.304 16.896l4.096 5.12c8.704 9.728 13.824 23.552 13.312 38.4s-6.656 27.648-15.872 36.864l-21.504 21.504 78.848 69.12c3.072 3.072 5.632 7.168 6.656 11.776 0.512 4.608-0.512 9.728-2.048 13.824zM261.632 306.688c-7.168 0.512-13.824 3.584-18.432 9.216s-7.168 12.288-6.656 19.456c1.024 14.336 12.8 25.6 27.136 25.6 0.512 0 1.024 0 2.048 0 7.168-0.512 13.824-3.584 18.432-9.216s7.168-12.288 6.656-19.968c-1.536-14.336-14.336-26.112-29.184-25.088zM307.712 244.736c-7.168 0-13.824 2.56-18.432 7.68-10.752 10.24-11.264 27.136-1.536 37.888 0.512 0.512 11.264 11.776 16.384 16.896l2.56 3.072c5.12 5.632 12.288 8.704 19.968 8.704 7.168 0 13.824-2.56 18.432-7.68 5.12-5.12 8.192-11.776 8.704-18.944 0-7.168-2.56-14.336-7.68-19.456l-7.68-8.192c-1.536-1.536-3.584-3.584-5.12-5.632-0.512-0.512-0.512-0.512-1.024-1.024-1.536-1.536-2.56-2.56-3.584-3.584-0.512-0.512-1.024-1.024-1.536-1.536 0 0 0-0.512 0-0.512-5.12-4.608-11.776-7.68-19.456-7.68zM368.64 187.392c-5.12-5.12-12.288-8.192-19.456-8.192s-13.824 2.56-18.944 7.68c-10.752 10.24-11.264 27.136-1.536 37.888 0 0.512 6.656 6.656 13.312 14.336 0 0 0 0 0 0l5.12 5.632c9.216 9.728 12.288 12.8 13.312 13.824 0 0 0.512 0 0.512 0.512v0 0c1.024 1.024 1.536 1.536 1.536 1.536 5.12 5.632 12.288 8.704 19.968 8.704 7.168 0 13.824-2.56 18.432-7.68 5.12-5.12 8.192-11.776 8.704-18.944 0-7.168-2.56-14.336-7.68-19.456 0-1.024-32.256-34.816-33.28-35.84zM428.544 152.576c-14.848 1.024-26.112 13.824-25.6 28.672 1.024 14.336 12.8 25.6 27.136 25.6 0.512 0 1.024 0 2.048 0 14.848-1.024 26.112-13.824 25.6-28.672-1.536-15.36-14.336-26.624-29.184-25.6zM760.832 340.992l-211.456 210.944 2.56 6.144c1.024 3.072 1.024 6.656-0.512 9.728-2.048 3.072-4.608 5.12-8.192 5.12l-15.872 1.024-17.408 1.024-1.536-20.48c0-0.512-3.584-46.592-27.136-88.576-24.064-43.008-56.32-57.856-60.928-58.88-5.632-1.024-11.264-2.048-15.872-2.048-3.072 0-5.632 0.512-8.192 1.536l-8.192 3.584c-3.584 1.536-6.144 4.608-7.168 8.192-1.536 3.584-1.536 7.168 0 10.752l80.384 176.64 13.824 9.216 5.632 2.048 101.376 38.4c6.144 2.56 12.8 3.584 19.968 3.584h0.512c6.656 0 13.312-1.024 19.456-3.584l117.76-42.496 99.84-200.192-78.848-71.68zM875.008 752.128l-79.36-39.424c-11.264-5.632-20.48-15.872-25.088-28.672-4.608-13.312-3.072-26.624 2.56-38.4l103.936-208.896c5.632-11.264 15.872-20.48 28.672-25.088 13.312-4.608 26.624-3.072 38.4 2.56l79.36 39.424-148.48 298.496zM944.128 454.144c-10.752 0-18.944 8.704-18.944 18.944 0 10.752 8.704 18.944 18.944 18.944 10.752 0 18.944-8.704 18.944-18.944 0.512-10.752-8.192-18.944-18.944-18.944zM0 499.712l72.704-51.2c10.24-7.168 23.552-10.752 37.376-8.192s25.088 10.24 32.256 20.48l134.144 190.976c7.168 10.24 10.752 23.552 8.192 37.376s-10.24 25.088-20.48 32.256l-72.704 51.2-191.488-272.896zM62.464 509.44c1.536 10.24 11.264 17.92 22.016 15.872 10.24-1.536 17.92-11.264 15.872-22.016-1.536-10.24-11.264-17.92-22.016-15.872-10.24 1.536-17.408 11.776-15.872 22.016z" />
<glyph unicode="&#xe605;" glyph-name="results" d="M639.488 82.432v74.752c0 4.096-1.536 8.192-4.608 11.264s-7.168 4.608-11.264 4.608h-222.72c-4.096 0-8.192-1.536-11.264-4.608s-4.608-7.168-4.608-11.264v-74.752l-87.040-48.128c-1.024-0.512-1.536-1.024-2.048-2.048s-1.024-2.048-1.024-3.072v-10.752c0-1.536 0.512-3.072 1.536-4.096s2.56-1.536 4.096-1.536h423.424c1.536 0 3.072 0.512 4.096 1.536s1.536 2.56 1.536 4.096v10.752c0 1.024-0.512 2.048-1.024 3.072s-1.536 1.536-2.048 2.048l-87.040 48.128zM1012.736 871.936c-7.68 7.68-17.408 11.264-27.136 11.264h-947.2c-9.728 0-19.968-3.584-27.136-11.264-7.68-7.68-11.264-17.408-11.264-27.136v-612.864c0-9.728 3.584-19.968 11.264-27.136 7.68-7.68 17.408-11.264 27.136-11.264h946.688c9.728 0 19.968 3.584 27.136 11.264 7.68 7.68 11.264 17.408 11.264 27.136v612.352c0.512 10.24-3.072 19.968-10.752 27.648zM512 209.408c-9.216 0-16.896 7.68-16.896 16.896s7.68 16.896 16.896 16.896c9.216 0 16.896-7.68 16.896-16.896s-7.68-16.896-16.896-16.896zM957.44 259.584h-890.88v556.544h890.88v-556.544zM209.92 312.32c-2.048 0-4.096-1.024-5.632-2.56s-2.56-3.584-2.56-5.632v-6.144h86.016v6.144c0 2.048-1.024 4.096-2.56 5.632s-3.584 2.56-5.632 2.56h-69.632zM314.88 411.648c-2.048 0-4.096-1.024-5.632-2.56s-2.56-3.584-2.56-5.632v-105.472h86.016v105.472c0 2.048-1.024 4.096-2.56 5.632s-3.584 2.56-5.632 2.56h-69.632zM419.84 452.096c-2.048 0-4.096-0.512-5.632-2.56-1.536-1.536-2.56-3.584-2.56-5.632v-146.432h86.016v146.432c0 2.048-1.024 4.096-2.56 5.632s-3.584 2.56-5.632 2.56h-69.632zM524.8 435.2c-2.048 0-4.096-0.512-5.632-2.56-1.536-1.536-2.56-3.584-2.56-5.632v-129.536h86.016v130.048c0 2.048-1.024 4.096-2.56 5.632s-3.584 2.56-5.632 2.56c0.512-0.512-69.632-0.512-69.632-0.512zM629.76 500.736c-2.048 0-4.096-1.024-5.632-2.56s-2.56-3.584-2.56-5.632v-195.072h86.016v195.072c0 2.048-1.024 4.096-2.56 5.632s-3.584 2.56-5.632 2.56h-69.632zM734.72 582.656c-2.048 0-4.096-1.024-5.632-2.56s-2.56-3.584-2.56-5.632v-276.992h86.016v276.992c0 2.048-0.512 4.096-2.56 5.632-1.536 1.536-3.584 2.56-5.632 2.56h-69.632zM877.568 736.256c1.024 2.048 1.024 4.096-0.512 6.144-1.536 1.536-3.584 2.56-5.632 2.048l-86.016-25.088c-1.536-0.512-3.072-1.536-3.584-3.584-0.512-1.536 0-3.584 1.024-5.12l10.24-13.312-260.096-203.264-144.384 60.928-240.64-228.352c-1.536-1.536-2.56-3.584-2.56-5.632s1.024-4.096 2.048-5.632l11.264-11.776c1.536-1.536 3.584-2.56 5.632-2.56s4.096 1.024 5.632 2.048l225.28 214.016 142.336-59.904 274.944 214.528 10.24-13.312c1.024-1.536 2.56-2.048 4.608-2.048s3.584 1.024 4.096 2.56l46.080 77.312z" />
<glyph unicode="&#xe606;" glyph-name="three" d="M797.696 382.976c-2.048 9.216-7.168 18.432-15.872 25.6-8.192 7.168-18.432 11.264-29.184 13.312l-168.96 32.768 49.152-32.256-77.312-242.176-43.52 179.2-43.52-180.224-77.312 242.176 49.152 32.256-169.472-32.768c-10.752-1.536-20.48-6.144-29.184-13.312-8.192-7.168-13.312-16.384-15.872-25.6l-50.176-220.16 94.72-32.768c31.232-32.768 119.296-56.832 224.768-58.88h33.28c105.472 2.048 193.536 26.112 224.768 58.88l94.72 32.768-50.176 221.184zM512 429.568l-38.912-13.824 38.912-56.32 38.912 56.32zM656.896 646.656c0 99.84-40.96 178.176-144.896 178.176s-144.896-78.336-144.896-178.176c-10.752-5.632-17.92-18.944-7.168-47.616 5.12-14.336 14.848-26.112 23.040-32.768 29.696-73.728 87.552-130.56 129.024-130.56s99.84 56.832 129.024 130.56c8.192 6.144 17.408 18.432 23.040 32.768 10.752 28.672 3.584 41.984-7.168 47.616zM163.84 212.992c-48.128 5.632-86.528 18.944-102.4 35.328l-61.44 21.504 32.768 142.848c1.536 6.144 4.608 11.776 10.24 16.384s11.776 7.68 18.944 8.704l118.784 27.136c-17.92 15.36-35.328 39.424-46.592 67.072-5.12 4.096-11.264 11.776-14.848 20.992-6.656 18.432-2.048 27.136 4.608 30.72 0 65.024 26.624 115.712 93.696 115.712v0c67.072 0 93.696-50.688 93.696-115.712 7.168-3.584 11.776-12.288 4.608-30.72-3.584-9.216-9.728-16.896-14.848-20.992-11.264-27.648-28.672-51.712-46.592-67.072l52.736-12.288-40.96-7.68c-15.36-2.56-29.184-8.704-40.448-18.432-11.776-10.24-19.968-23.552-23.040-37.888l-38.912-175.616zM991.232 412.16c-1.536 6.144-4.608 11.776-10.24 16.384s-11.776 7.68-18.944 8.704l-118.784 27.136c17.92 15.36 35.328 39.424 46.592 67.072 5.12 4.096 11.264 11.776 14.848 20.992 7.168 18.432 2.048 27.136-4.608 30.72 0 65.024-26.624 115.712-93.696 115.712v0c-67.072 0-93.696-50.688-93.696-115.712-7.168-3.584-11.776-12.288-4.608-30.72 3.584-9.216 9.728-16.896 14.848-20.992 11.264-27.648 28.672-51.712 46.592-67.072l-52.736-12.288 40.96-7.68c14.848-2.56 29.184-8.704 40.448-18.432 11.776-10.24 19.968-23.552 23.040-37.888l39.936-175.104c48.128 5.632 86.528 18.944 102.4 35.328l61.44 21.504-33.792 142.336z" />
<glyph unicode="&#xe607;" glyph-name="x" d="M1024.307 39.202c0 0-102.519-102.451-102.519-102.451s-409.395 409.412-409.395 409.412c0 0-409.822-409.412-409.822-409.412s-102.519 102.451-102.519 102.451c0 0 409.719 409.037 409.719 409.037s-409.719 409.498-409.719 409.498c0 0 102.519 102.434 102.519 102.434s409.822-409.395 409.822-409.395c0 0 409.395 409.395 409.395 409.395s102.519-102.434 102.519-102.434c0 0-409.737-409.498-409.737-409.498s409.737-409.037 409.737-409.037z" />
<glyph unicode="&#xe608;" glyph-name="menu" d="M0-64c0 0 0 145.067 0 145.067s1024 0 1024 0c0 0 0-145.067 0-145.067s-1024 0-1024 0zM0 520.533c0 0 1024 0 1024 0s0-145.067 0-145.067c0 0-1024 0-1024 0s0 145.067 0 145.067zM0 960c0 0 1024 0 1024 0s0-145.067 0-145.067c0 0-1024 0-1024 0s0 145.067 0 145.067z" />
<glyph unicode="&#xe609;" glyph-name="instagram" d="M512.8 47.2c-220.8 0-400.8 180-400.8 400.8s180 400.8 400.8 400.8 400.8-180 400.8-400.8c0-220.8-180-400.8-400.8-400.8zM512.8 816.8c-203.2 0-368.8-165.6-368.8-368.8s165.6-368.8 368.8-368.8 368.8 165.6 368.8 368.8-165.6 368.8-368.8 368.8zM512.8 336.8c-54.4 0-98.4 44-98.4 98.4s44 98.4 98.4 98.4c54.4 0 98.4-44 98.4-98.4s-44.8-98.4-98.4-98.4zM512.8 501.6c-36.8 0-66.4-29.6-66.4-66.4s29.6-66.4 66.4-66.4c36.8 0 66.4 29.6 66.4 66.4s-30.4 66.4-66.4 66.4zM639.2 231.2h-253.6c-52.8 0-96 43.2-96 96v240.8c0 52.8 43.2 96 96 96h253.6c52.8 0 96-43.2 96-96v-240.8c0-52.8-43.2-96-96-96zM385.6 632.8c-35.2 0-64-28.8-64-64v-240.8c0-35.2 28.8-64 64-64h253.6c35.2 0 64 28.8 64 64v240.8c0 35.2-28.8 64-64 64h-253.6zM445.6 473.6h-134.4c-8.8 0-16 7.2-16 16s7.2 16 16 16h134.4c8.8 0 16-7.2 16-16s-7.2-16-16-16zM715.2 473.6h-136c-8.8 0-16 7.2-16 16s7.2 16 16 16h136c8.8 0 16-7.2 16-16s-7.2-16-16-16zM601.6 584.8c0 8.8 7.2 16 16 16h27.2c8.8 0 16-7.2 16-16v-27.2c0-8.8-7.2-16-16-16h-27.2c-8.8 0-16 7.2-16 16v27.2z" />
<glyph unicode="&#xe60a;" glyph-name="linkedin" d="M512 47.2c-220.8 0-400.8 180-400.8 400.8s180 400.8 400.8 400.8c220.8 0 400.8-180 400.8-400.8 0.8-220.8-179.2-400.8-400.8-400.8zM512 816.8c-203.2 0-368.8-165.6-368.8-368.8s165.6-368.8 368.8-368.8c203.2 0 368.8 165.6 368.8 368.8 0.8 203.2-164.8 368.8-368.8 368.8zM397.6 299.2c-8.8 0-16 7.2-16 16v217.6c0 8.8 7.2 16 16 16s16-7.2 16-16v-217.6c0-8.8-7.2-16-16-16zM500.8 299.2c-8.8 0-16 7.2-16 16v217.6c0 8.8 7.2 16 16 16s16-7.2 16-16v-217.6c0-8.8-7.2-16-16-16zM644 299.2c-8.8 0-16 7.2-16 16v144c0 30.4-24.8 55.2-55.2 55.2s-55.2-24.8-55.2-55.2c0-8.8-7.2-16-16-16s-16 7.2-16 16c0 48 39.2 87.2 87.2 87.2s87.2-39.2 87.2-87.2v-144c0-8.8-7.2-16-16-16zM417.6 612c0-11.046-8.954-20-20-20s-20 8.954-20 20c0 11.046 8.954 20 20 20s20-8.954 20-20z" />
<glyph unicode="&#xe60b;" glyph-name="twitter" d="M454.4 277.6c-42.4 0-84 12-119.2 35.2-6.4 4-8.8 12-6.4 19.2s9.6 11.2 16.8 10.4c4.8-0.8 9.6-0.8 15.2-0.8 16.8 0 33.6 3.2 48.8 9.6-19.2 10.4-35.2 28.8-41.6 50.4-1.6 4-0.8 8.8 1.6 12.8-16.8 16-27.2 39.2-27.2 64v0.8c0 5.6 3.2 11.2 8 13.6 0 0 0.8 0 0.8 0.8-5.6 11.2-8 24-8 36.8 0 15.2 4 31.2 12 44 2.4 4.8 7.2 7.2 12.8 8 4.8 0.8 10.4-1.6 13.6-5.6 29.6-36.8 72-60.8 118.4-68 0.8 48 40 87.2 88 87.2 20.8 0 41.6-8 57.6-21.6 11.2 3.2 22.4 8 32.8 13.6 2.4 1.6 4.8 2.4 8 2.4 0 0 0 0 0.8 0 8.8 0 16-7.2 16-16 0-2.4-0.8-4-0.8-5.6-0.8-2.4-1.6-4.8-2.4-7.2 4-0.8 7.2-2.4 9.6-5.6 4.8-5.6 4.8-13.6 0.8-19.2-8.8-13.6-20-25.6-32.8-36 0-0.8 0-0.8 0-1.6-1.6-109.6-84.8-221.6-223.2-221.6zM406.4 315.2c15.2-4 31.2-6.4 47.2-6.4 118.4 0 189.6 96 189.6 189.6 0 3.2 0 5.6 0 8.8 0 4.8 1.6 8.8 4.8 12-4 1.6-8 4.8-8.8 9.6-1.6 4-0.8 8 0.8 11.2-4 0-8 1.6-11.2 4.8-10.4 11.2-25.6 17.6-40.8 17.6-31.2 0-56-25.6-56-56 0-4 0.8-8.8 1.6-12.8 0.8-4.8 0-10.4-3.2-13.6-3.2-4-8-6.4-12.8-5.6-52.8 2.4-103.2 24.8-141.6 60.8 0-1.6 0-4 0-5.6 0-19.2 9.6-36 24.8-47.2 5.6-4 8.8-11.2 6.4-18.4-2.4-6.4-8-11.2-16-11.2-4 0-7.2 0.8-11.2 0.8 7.2-16 21.6-28.8 40-32 7.2-1.6 12.8-8 12.8-15.2s-4.8-14.4-12-16c-3.2-0.8-6.4-1.6-9.6-2.4 10.4-11.2 24.8-17.6 40-17.6 6.4 0 12.8-4.8 15.2-11.2s0-13.6-5.6-17.6c-16.8-11.2-35.2-20.8-54.4-26.4zM512 48c-220.8 0-400.8 180-400.8 400.8s180 400.8 400.8 400.8 400.8-180 400.8-400.8c0-220.8-180-400.8-400.8-400.8zM512 817.6c-203.2 0-368.8-165.6-368.8-368.8s165.6-368.8 368.8-368.8 368.8 165.6 368.8 368.8c0 203.2-165.6 368.8-368.8 368.8z" />
<glyph unicode="&#xe60c;" glyph-name="logo" horiz-adv-x="914" d="M793.927 346.974c-0.014 1.288-0.292 2.524-0.709 3.667-1.232 66.089-41.569 91.589-43.311 92.645-0.83 0.513-1.738 0.914-2.675 1.178 0 0-158.205 45.175-158.205 45.175-10.984 9.195-34.632 34-34.632 58.046 0 0 0.028 82.732 0.028 82.732 0 2.377-1.943 4.322-4.318 4.322 0 0-224.247 0-224.247 0-2.375 0-4.318-1.945-4.318-4.322 0 0-0.121-57.918-0.121-57.918s-321.424 0-321.424 0c0 0 0-10.711 0-10.711 0-28.532 23.176-51.748 51.681-51.748 0 0 30.694 0 30.694 0 4.922-23.41 25.721-41.044 50.54-41.044 0 0 25.124 0 25.124 0 4.94-23.403 25.728-41.044 50.559-41.044 0 0 27.133 0 27.133 0 4.94-23.403 25.728-41.032 50.547-41.032-0.014 0 14.824-0.047 34.767-0.075 0 0-0.082-39.215-0.082-39.215 0-0.168 0.040-0.343 0.047-0.515-0.1-0.567-0.182-1.162-0.182-1.763 0 0-0.168-41.811-0.168-41.811-0.007-2.89 1.129-5.645 3.156-7.688 0.665-0.669 1.43-1.204 2.232-1.672 0 0 4.621 0 4.621 0s24.061 0 24.061 0c-0.844-4.031-1.316-8.143-1.316-12.283 0-33.981 27.671-61.613 61.683-61.613 33.995 0 61.673 27.639 61.673 61.613 0 4.175-0.455 8.271-1.29 12.283 0 0 160.698 0 160.698 0-0.844-4.031-1.316-8.143-1.316-12.283 0-33.981 27.671-61.613 61.683-61.613 33.995 0 61.673 27.639 61.673 61.613 0 4.175-0.455 8.271-1.29 12.283 0 0 27.305 0 27.305 0s4.623 0 4.623 0c0.805 0.471 1.574 1.010 2.244 1.686 2.034 2.050 3.163 4.826 3.142 7.714 0 0-0.31 43.395-0.31 43.395zM286.286 408.332c-12.955 0-23.93 8.183-28.273 19.626 0 0 45.504 0 45.504 0s0 21.406 0 21.406c0 0-94.938 0-94.938 0-12.934 0-23.909 8.194-28.257 19.638 0 0 77.218 0 77.218 0s0 21.406 0 21.406c0 0-124.643 0-124.643 0-12.92 0-23.909 8.187-28.259 19.631 0 0 114.436 0 114.436 0s0 21.406 0 21.406c0 0-167.411 0-167.411 0-12.955 0-24.019 8.176-28.362 19.633 0 0 298.077 0 298.077 0s-0.294-142.824-0.294-142.824c-19.953 0.030-34.797 0.077-34.797 0.077zM343.049 551.079c0 0 12.724 0 12.724 0 24.051 0 45.422-21.224 54.265-33.766 0 0 73.987-109.080 73.987-109.080s-131.93 0-131.93 0c-3.144 0-6.265 0-9.365 0.002 0 0 0.32 142.845 0.32 142.845zM352.088 386.819c0 0 172.305 0 172.305 0s-96.776 142.677-96.776 142.677c-14.028 19.918-41.175 42.996-71.843 42.996 0 0 0 0.007 0 0.007s-12.678 0-12.678 0c0 0 0.091 40.832 0.091 40.832s189.573 0 189.573 0c0 0 0-41.606 0-41.606s-32.287-0.145-32.287-0.145c-5.969-0.026-10.795-4.898-10.76-10.874 0.026-5.962 4.859-10.774 10.814-10.774 0.014 0 0.033 0 0.047 0 0 0 32.199 0.142 32.199 0.142s0-2.382 0-2.382c0-9.293 2.211-18.213 5.638-26.498 0 0-32.348-13.156-32.348-13.156-5.535-2.251-8.199-8.568-5.955-14.11 1.71-4.21 5.759-6.753 10.023-6.753 1.353 0 2.731 0.257 4.070 0.798 0 0 34.72 14.117 34.72 14.117 5.041-7.357 10.529-13.725 15.327-18.719 0 0-23.034-27.998-23.034-27.998-3.797-4.616-3.135-11.439 1.481-15.241 2.008-1.658 4.448-2.463 6.867-2.463 3.116 0 6.212 1.339 8.353 3.937 0 0 22.934 27.877 22.934 27.877 0.047-0.012 0.093-0.042 0.135-0.054 0 0 26.468-7.574 26.468-7.574s-13.641-29.948-13.641-29.948c-2.48-5.442-0.079-11.863 5.353-14.345 1.453-0.672 2.974-0.989 4.481-0.989 4.103 0 8.031 2.361 9.848 6.349 0 0 14.998 32.924 14.998 32.924s111.142-31.735 111.142-31.735c5.358-3.872 28.231-22.773 31.611-65.681 0 0-428.624 0-428.624 0s0.063 28.39 0.063 28.39c3.112-0.002 6.247-0.002 9.405-0.002zM415.096 241.931c-22.094 0-40.060 17.928-40.060 39.964 0 4.248 0.697 8.353 1.999 12.283 0 0 76.173 0 76.173 0 1.274-3.937 1.936-8.057 1.936-12.283 0-22.036-17.965-39.964-40.048-39.964zM696.546 241.931c-22.096 0-40.060 17.928-40.060 39.964 0 4.248 0.695 8.353 1.997 12.283 0 0 76.173 0 76.173 0 1.274-3.937 1.936-8.057 1.936-12.283 0-22.036-17.965-39.964-40.046-39.964zM342.336 314.32c0 0 0.096 22.456 0.096 22.456s429.935 0 429.935 0c0 0 0.168-22.456 0.168-22.456s-430.199 0-430.199 0zM22.437 704.289c7.282 12.377 19.505 17.809 32.591 10.095 10.018-5.913 13.489-15.362 11.269-25.057 0 0 41.058 6.732 41.058 6.732s-11.369-19.335-11.369-19.335c0 0-38.324-4.859-38.324-4.859s26.335-15.533 26.335-15.533c0 0-8.943-15.201-8.943-15.201s-66.649 39.29-66.649 39.29c0 0 14.033 23.867 14.033 23.867zM47.962 679.979c3.38 5.745 7.019 12.855-1.302 17.765-8.323 4.905-12.771-1.731-16.148-7.476 0 0-1.045-1.78-1.045-1.78s17.448-10.289 17.448-10.289c0 0 1.047 1.78 1.047 1.78zM117.611 801.786c0 0-18.187-19.449-18.187-19.449s11.217-10.513 11.217-10.513c0 0 17.417 18.621 17.417 18.621s11.285-10.576 11.285-10.576c0 0-17.42-18.626-17.42-18.626s11.357-10.644 11.357-10.644c0 0 18.187 19.447 18.187 19.447s11.283-10.578 11.283-10.578c0 0-30.225-32.325-30.225-32.325s-56.425 52.898-56.425 52.898c0 0 30.225 32.322 30.225 32.322s11.285-10.578 11.285-10.578zM256.602 829.945c0 0-15.738-10.534-15.738-10.534s-13.352 9.685-13.352 9.685c0 0-24.466-16.379-24.466-16.379s3.846-16.057 3.846-16.057c0 0-15.74-10.534-15.74-10.534s-17.044 81.733-17.044 81.733c0 0 13.557 9.081 13.557 9.081s68.937-46.994 68.937-46.994zM194.252 852.557c0 0-0.154-0.105-0.154-0.105s5.335-23.524 5.335-23.524c0 0 14.492 9.704 14.492 9.704s-19.673 13.925-19.673 13.925zM286.641 926.784c19.939 7.173 42.157-1.985 49.765-23.186 7.642-21.289-3.578-42.488-23.606-49.695 0 0-21.086-7.593-21.086-7.593s-26.16 72.888-26.16 72.888c0 0 21.086 7.586 21.086 7.586zM305.532 868.045c12.265 4.413 17.287 16.795 12.997 29.013-4.376 12.195-16.151 18.633-28.502 14.191 0 0-2.561-0.921-2.561-0.921s15.507-43.204 15.507-43.204c0 0 2.559 0.921 2.559 0.921zM387.73 953.473c0 0 19.020-22.626 19.020-22.626s12.988 26.561 12.988 26.561c0 0 21.023 2.584 21.023 2.584s-23.083-45.87-23.083-45.87c0 0 4.224-34.466 4.224-34.466s-17.49-2.153-17.49-2.153c0 0-4.229 34.468-4.229 34.468s-33.486 38.917-33.486 38.917c0 0 21.033 2.584 21.033 2.584zM544.369 948.309c0 0-8.472-13.31-8.472-13.31s-7.121 6.079-15.050 6.858c-5.969 0.595-9.407-1.803-9.822-6.004-0.422-4.297 6.55-8.099 14.949-12.701 8.22-4.49 16.925-12.699 15.929-22.789-1.81-18.397-16.435-23.463-31.452-21.978-17.998 1.775-27.907 13.039-27.907 13.039s10.221 13.888 10.221 13.888c0 0 9.403-9.697 17.982-10.55 3.821-0.376 11.136-0.718 11.842 6.473 0.553 5.601-7.408 8.938-16.092 14.413-8.782 5.489-13.487 13.216-12.694 21.247 1.416 14.383 14.998 22.278 27.405 21.054 13.991-1.383 23.16-9.641 23.16-9.641zM644.686 911.972c0 0-25.292 8.302-25.292 8.302s-4.784-14.625-4.784-14.625c0 0 24.221-7.954 24.221-7.954s-4.817-14.712-4.817-14.712c0 0-24.224 7.949-24.224 7.949s-4.845-14.798-4.845-14.798c0 0 25.29-8.306 25.29-8.306s-4.814-14.707-4.814-14.707c0 0-42.031 13.795-42.031 13.795s24.079 73.562 24.079 73.562c0 0 42.031-13.795 42.031-13.795s-4.814-14.712-4.814-14.712zM703.087 903.165c0 0 46.987-27.405 46.987-27.405s-7.786-13.387-7.786-13.387c0 0-15.88 9.263-15.88 9.263s-31.149-53.542-31.149-53.542c0 0-15.229 8.885-15.229 8.885s31.149 53.54 31.149 53.54c0 0-15.88 9.263-15.88 9.263s7.788 13.384 7.788 13.384zM814.402 754.815c-16.564-11.287-34.123-6.072-45.119 4.409-15.064 14.373-14.933 38.998 0.32 55.030 15.318 16.106 39.201 18.084 54.944 3.067 9.843-9.386 13.207-19.587 12.468-30.16 0 0-17.072-1.215-17.072-1.215 1.721 8.339-0.681 14.387-5.635 19.111-7.87 7.509-21.684 5.778-30.928-3.935-9.050-9.519-10.039-23.342-2.169-30.851 6.111-5.827 15.899-7.646 22.43-0.784 0 0-12.899 12.3-12.899 12.3s9.375 9.85 9.375 9.85c0 0 25.857-24.653 25.857-24.653s-11.57-12.169-11.57-12.169zM908.699 712.875c11.208-18.325 5.444-42.327-13.821-54.132-19.26-11.81-42.915-6.729-54.515 12.234-11.938 19.533-5.409 42.462 13.855 54.27 19.258 11.807 43.372 5.799 54.48-12.372zM854.909 679.902c7.341-12.010 20.205-10.94 30.037-4.919 9.832 6.030 16.435 17.34 9.288 29.022-7.096 11.612-20.254 11.021-30.086 4.996-9.829-6.027-16.771-16.774-9.239-29.099zM75.358 148.929c0 0-8.050-14.726-8.050-14.726s-10.769 3.032-20.326 16.837c-12.442 17.97-9.232 44.638 8.943 57.255 18.257 12.671 44.415 6.506 56.908-11.537 9.559-13.811 8.619-24.966 8.619-24.966s-16.599-2.384-16.599-2.384c0 0 0.406 7.814-4.719 15.218-10.093 14.579-24.69 13.925-33.162 8.043-8.547-5.934-14.285-19.395-4.192-33.972 5.125-7.406 12.577-9.769 12.577-9.769zM182.027 121.36c16.253-14.028 18.070-38.641 3.322-55.774-14.747-17.13-38.823-19.512-55.646-4.989-17.317 14.954-18.082 38.781-3.333 55.905 14.751 17.128 39.546 18.768 55.658 4.859zM140.841 73.533c10.648-9.193 22.575-4.25 30.102 4.49 7.527 8.742 10.366 21.527 0.007 30.475-10.291 8.88-22.645 4.308-30.172-4.432s-10.867-21.098 0.063-30.533zM235.422 8.837c0 0 23.657-12.232 23.657-12.232s-7.091-13.76-7.091-13.76c0 0-39.32 20.321-39.32 20.321s35.474 68.82 35.474 68.82c0 0 15.659-8.094 15.659-8.094s-28.378-55.056-28.378-55.056zM330.586-29.168c0 0 25.661-7.103 25.661-7.103s-4.122-14.933-4.122-14.933c0 0-42.651 11.805-42.651 11.805s20.613 74.654 20.613 74.654c0 0 16.988-4.705 16.988-4.705s-16.489-59.719-16.489-59.719zM461.045-2.194c0 0-26.561 1.675-26.561 1.675s-0.963-15.355-0.963-15.355c0 0 25.434-1.605 25.434-1.605s-0.97-15.449-0.97-15.449c0 0-25.437 1.6-25.437 1.6s-0.977-15.547-0.977-15.547c0 0 26.559-1.672 26.559-1.672s-0.97-15.451-0.97-15.451c0 0-44.139 2.783-44.139 2.783s4.859 77.253 4.859 77.253c0 0 44.137-2.783 44.137-2.783s-0.97-15.449-0.97-15.449zM573.251-32.223c0 0 9.801-13.627 9.801-13.627s-7.378-8.428-23.942-11.103c-21.565-3.497-44.214 10.905-47.741 32.775-3.546 21.961 13.289 42.943 34.942 46.453 16.566 2.682 26.216-2.981 26.216-2.981s-5.006-16.022-5.006-16.022c0 0-6.872 3.734-15.754 2.295-17.494-2.836-23.197-16.307-21.553-26.505 1.663-10.289 11.318-21.275 28.81-18.439 8.885 1.442 14.226 7.154 14.226 7.154zM608.247 36.105c0 0 50.316 20.66 50.316 20.66s5.866-14.343 5.866-14.343c0 0-17.002-6.972-17.002-6.972s23.47-57.332 23.47-57.332c0 0-16.309-6.694-16.309-6.694s-23.47 57.33-23.47 57.33c0 0-17.002-6.979-17.002-6.979s-5.869 14.331-5.869 14.331zM753.764 23.21c0 0-14.817-9.554-14.817-9.554s-41.867 65.102-41.867 65.102c0 0 14.817 9.561 14.817 9.561s41.867-65.109 41.867-65.109zM739.54 106.397c0 0 14.448 13.646 14.448 13.646s49.021-23.587 49.021-23.587c0 0-20.674 50.37-20.674 50.37s14.443 13.653 14.443 13.653c0 0 29.474-78.57 29.474-78.57s-10.088-9.531-10.088-9.531c0 0-76.625 34.021-76.625 34.021zM857.984 220.21c0 0-14.747-22.192-14.747-22.192s12.801-8.528 12.801-8.528c0 0 14.117 21.257 14.117 21.257s12.878-8.582 12.878-8.582c0 0-14.119-21.252-14.119-21.252s12.957-8.628 12.957-8.628c0 0 14.742 22.192 14.742 22.192s12.878-8.577 12.878-8.577c0 0-24.504-36.883-24.504-36.883s-64.386 42.882-64.386 42.882c0 0 24.501 36.887 24.501 36.887s12.88-8.577 12.88-8.577z" />
<glyph unicode="&#xe60d;" glyph-name="logo-footer" horiz-adv-x="1765" d="M49.207 297.888c25.538 0 44.847-13.703 44.847-40.487 0-20.555-11.212-34.258-28.029-39.864l47.338-56.681h-39.864l-42.355 54.19v-54.19h-31.144v137.032h49.207zM34.881 236.847c11.835 0 26.161 0.623 26.161 18.063 0 16.818-14.326 18.063-26.161 18.063h-3.737v-36.127h3.737zM268.457 270.482h-47.338v-27.406h44.847v-27.406h-44.847v-27.406h47.338v-27.406h-78.482v137.032h78.482v-27.406zM483.348 160.856h-33.635l-9.966 27.406h-52.321l-9.966-27.406h-33.635l55.436 137.032h28.652l55.436-137.032zM413.586 255.533v0l-15.572-39.864h31.144l-15.572 39.864zM596.088 297.888c37.372 0 69.139-28.652 69.139-68.516s-31.144-68.516-69.139-68.516h-39.864v137.032h39.864zM592.35 188.886c23.046 0 38.618 17.44 39.241 40.487 0 23.046-15.572 40.487-39.241 40.487h-4.983v-80.973h4.983zM758.034 297.888l28.652-43.601 28.652 43.601h37.372l-50.453-75.367v-61.664h-31.144v61.664l-50.453 75.367h37.372zM1007.182 287.299l-12.457-24.915c0 0-13.703 9.343-27.406 9.343-10.589 0-16.195-4.983-16.195-12.457s13.080-13.080 28.652-19.932c14.949-6.229 31.766-19.309 31.766-37.372 0-32.389-24.915-44.224-51.698-44.224-31.766 0-51.698 18.063-51.698 18.063l15.572 26.161c0 0 18.063-15.572 33.635-15.572 6.852 0 19.932 0.623 19.932 13.703 0 9.966-14.326 14.326-31.144 22.423-16.195 8.097-26.161 21.178-26.161 34.881 0 25.538 22.423 41.732 44.847 41.732 24.915 1.246 42.355-11.835 42.355-11.835zM1175.358 270.482h-47.338v-27.406h44.847v-27.406h-44.847v-27.406h47.338v-27.406h-78.482v137.032h78.482v-27.406zM1255.708 297.888h95.922v-27.406h-32.389v-109.625h-31.144v109.625h-32.389v27.406zM1548.457 207.572c-7.474-34.881-36.127-49.207-62.91-49.207-36.749 0-66.647 31.766-66.647 71.007s28.029 71.007 66.647 71.007c24.292 0 40.487-8.72 52.944-23.669l-20.555-22.423c-8.097 13.080-18.686 17.44-30.521 17.44-19.309 0-34.881-19.309-34.881-42.978 0-23.046 15.572-42.355 34.881-42.355 14.949 0 29.898 9.343 29.898 26.161h-31.766v24.915h62.91v-29.898zM1696.701 300.38c37.995 0 68.516-31.144 68.516-71.007s-29.275-71.007-68.516-71.007c-40.487 0-69.139 31.144-69.139 71.007s31.144 71.007 69.139 71.007zM1696.701 188.263c24.915 0 34.881 20.555 34.881 40.487 0 20.555-11.212 41.109-34.881 41.109-24.292 0-35.504-20.555-35.504-41.109 0-19.932 9.966-40.487 35.504-40.487zM450.959-41.577l7.474-14.949c0 0-8.72-6.852-25.538-6.852-21.8 0-41.732 17.44-41.732 39.864s19.932 39.864 41.732 39.864c16.818 0 25.538-6.852 25.538-6.852l-7.474-14.949c0 0-6.229 4.983-14.949 4.983-17.44 0-25.538-12.457-25.538-22.423 0-10.589 7.474-22.423 25.538-22.423 8.72-1.246 14.949 3.737 14.949 3.737zM545.012 15.727c21.178 0 38.618-17.44 38.618-39.864s-16.818-39.864-38.618-39.864c-23.046 0-38.618 17.44-38.618 39.864 0 23.046 17.44 39.864 38.618 39.864zM545.012-46.56c13.703 0 19.932 11.212 19.932 23.046s-6.229 23.046-19.932 23.046c-13.703 0-19.932-11.212-19.932-23.046s5.606-23.046 19.932-23.046zM654.015-47.182h26.783v-15.572h-44.224v77.236h17.44v-61.664zM751.805-47.182h26.783v-15.572h-44.224v77.236h17.44v-61.664zM875.757-1.090h-26.783v-15.572h25.538v-15.572h-25.538v-15.572h26.783v-15.572h-44.224v77.236h44.224v-14.949zM986.628-41.577l7.474-14.949c0 0-8.72-6.852-25.538-6.852-21.8 0-41.732 17.44-41.732 39.864s19.932 39.864 41.732 39.864c16.818 0 25.538-6.852 25.538-6.852l-7.474-14.949c0 0-6.229 4.983-14.949 4.983-17.44 0-25.538-12.457-25.538-22.423 0-10.589 7.474-22.423 25.538-22.423 8.72-1.246 14.949 3.737 14.949 3.737zM1040.818 14.482h54.19v-15.572h-18.063v-61.664h-17.44v61.664h-18.063v15.572zM1164.146-62.754h-18.063v77.236h17.44v-77.236zM1204.010 14.482h19.932l19.309-50.453 19.309 50.453h19.932l-32.389-77.236h-13.703l-32.389 77.236zM1374.054-1.090h-26.783v-15.572h25.538v-15.572h-25.538v-15.572h26.783v-15.572h-44.224v77.236h44.224v-14.949zM1220.827 596.866c0 1.869-0.623 3.114-0.623 4.36-1.246 83.465-52.321 115.231-54.813 117.1-1.246 0.623-2.491 1.246-3.114 1.246l-199.942 56.681c-13.703 11.835-43.601 42.978-43.601 73.499v104.019c0 3.114-2.491 5.606-5.606 5.606h-283.406c-3.114 0-5.606-2.491-5.606-5.606v-72.876h-406.112v-13.703c0-36.127 29.275-65.401 65.401-65.401h38.618c6.229-29.275 32.389-51.698 63.533-51.698h31.766c6.229-29.275 32.389-51.698 63.533-51.698h34.258c6.229-29.275 32.389-51.698 63.533-51.698 0 0 18.686 0 43.601 0v-49.207c0 0 0-0.623 0-0.623 0-0.623 0-1.246 0-2.491v-52.944c0-3.737 1.246-6.852 3.737-9.966 0.623-0.623 1.869-1.246 3.114-1.869h36.127c-1.246-4.983-1.869-9.966-1.869-15.572 0-42.978 34.881-77.859 77.859-77.859s77.859 34.881 77.859 77.859c0 4.983-0.623 10.589-1.869 15.572h204.302c-1.246-4.983-1.869-9.966-1.869-15.572 0-42.978 34.881-77.859 77.859-77.859s77.859 34.881 77.859 77.859c0 4.983-0.623 10.589-1.869 15.572h39.864c1.246 0.623 1.869 1.246 3.114 1.869 2.491 2.491 3.737 6.229 3.737 9.966l0.623 55.436zM579.893 674.725c-16.195 0-30.521 10.589-35.504 24.915h57.304v26.783h-120.214c-16.195 0-29.898 10.589-35.504 24.915h97.791v26.783h-157.586c-16.195 0-29.898 10.589-35.504 24.915h144.506v26.783h-211.776c-16.195 0-30.521 10.589-35.504 24.915h376.214l-0.623-180.010c-24.915 0-43.601 0-43.601 0zM651.523 854.735h16.195c30.521 0 57.304-26.783 68.516-42.355l93.431-137.655h-166.307c-3.737 0-8.097 0-11.835 0v180.010zM662.735 647.319h217.382l-122.083 180.010c-17.44 24.915-51.698 54.19-90.939 54.19v0h-16.195v51.698h239.805v-52.321h-40.487c-7.474 0-13.703-6.229-13.703-13.703s6.229-13.703 13.703-13.703c0 0 0 0 0 0h40.487v-3.114c0-11.835 2.491-23.046 6.852-33.635l-41.109-16.818c-6.852-3.114-10.589-10.589-7.474-18.063 1.869-5.606 7.474-8.72 12.457-8.72 1.869 0 3.737 0.623 4.983 1.246l43.601 18.063c6.229-9.343 13.080-17.44 19.309-23.669l-29.275-35.504c-4.983-5.606-3.737-14.326 1.869-19.309 2.491-1.869 5.606-3.114 8.72-3.114 3.737 0 8.097 1.869 10.589 4.983l28.652 34.881c0 0 0 0 0 0l33.635-9.343-17.44-37.995c-3.114-6.852 0-14.949 6.852-18.063 1.869-0.623 3.737-1.246 5.606-1.246 4.983 0 9.966 3.114 12.457 8.097l18.686 41.732 140.146-39.864c6.852-4.983 35.504-28.652 39.864-82.842h-541.275v35.504c6.229 0.623 10.589 0.623 14.326 0.623zM742.462 464.818c-28.029 0-50.453 22.423-50.453 50.453 0 5.606 0.623 10.589 2.491 15.572h95.922c1.869-4.983 2.491-9.966 2.491-15.572 0-28.029-22.423-50.453-50.453-50.453zM1097.499 464.818c-28.029 0-50.453 22.423-50.453 50.453 0 5.606 0.623 10.589 2.491 15.572h96.545c1.869-4.983 2.491-9.966 2.491-15.572 0-28.029-23.046-50.453-51.075-50.453zM650.277 555.757v28.029h543.144v-28.029h-543.144z" />
<glyph unicode="&#xe60e;" glyph-name="facebook" d="M512 48c-220.8 0-400.8 180-400.8 400.8s180 400.8 400.8 400.8 400.8-180 400.8-400.8c0.8-220.8-179.2-400.8-400.8-400.8zM512 817.6c-203.2 0-368.8-165.6-368.8-368.8s165.6-368.8 368.8-368.8 368.8 165.6 368.8 368.8-164.8 368.8-368.8 368.8zM560 228h-116.8v204.8h-42.4v102.4h42.4v26.4c0 71.2 36 108 108 108h72.8v-102.4h-51.2c-7.2 0-10.4-0.8-11.2-1.6-0.8-1.6-0.8-5.6-0.8-11.2v-19.2h65.6l-11.2-102.4h-55.2v-204.8zM475.2 260h52.8v204.8h58.4l4 38.4h-62.4v51.2c0 23.2 5.6 44 44 44h19.2v38.4h-40.8c-53.6 0-76-21.6-76-76v-58.4h-42.4v-38.4h42.4c0.8 0.8 0.8-204 0.8-204z" />
<glyph unicode="&#xe60f;" glyph-name="arrow" d="M779.563 699.062v-51.063h-447.5c-85.399 0-149.608-21.269-193.875-58.875s-66.432-89.992-73.188-144.375c-6.6-53.137 5.489-112.891 38.75-161.875s90.391-86 165.188-86v60c-56.015 0-91.619 24.425-115.563 59.688s-33.553 82.584-28.813 120.75c5.408 43.539 21.411 79.652 52.5 106.063s79.425 44.625 155 44.625h447.5v-51l181.125 81.063-181.125 81z" />
<glyph unicode="&#xe610;" glyph-name="branding" d="M803.84 764.16c-24.32-35.84-42.24-70.4-65.28-110.080-34.56 28.16-79.36 64-99.84 83.2-65.28 60.16-124.16 85.76-206.080 79.36-65.28-3.84-37.12-79.36-85.76-129.28-29.44-30.72-149.76 35.84-180.48-35.84-43.52-103.68-21.76-221.44 55.040-312.32 17.92-20.48 51.2-67.84 78.080-103.68-40.96-23.040-76.8-38.4-115.2-61.44-69.12-42.24-115.2-85.76-43.52-112.64 52.48-20.48 245.76 92.16 460.8 296.96s336.64 391.68 318.72 445.44c-25.6 70.4-71.68 26.88-116.48-39.68z" />
<glyph unicode="&#xe611;" glyph-name="graphics" d="M512 164.073l-316.509-228.073 107.055 372.364-302.545 251.345 367.709 4.655 139.636 395.636 139.636-400.291h377.018l-307.2-256 107.055-372.364-311.855 232.727z" />
<glyph unicode="&#xe612;" glyph-name="photo" d="M512 477.867c-59.733 0-106.667-46.933-106.667-106.667s46.933-106.667 106.667-106.667 106.667 46.933 106.667 106.667c0 59.733-46.933 106.667-106.667 106.667zM891.733 725.333h-132.267c0 0 0 4.267 0 4.267l-12.8 29.867c-17.067 46.933-72.533 81.067-123.733 81.067h-213.333c-51.2 0-102.4-38.4-123.733-81.067l-12.8-29.867c0 0 0-4.267 0-4.267h-132.267c-72.533 0-132.267-59.733-132.267-132.267v-401.067c0-72.533 59.733-132.267 132.267-132.267h755.2c72.533 0 132.267 59.733 132.267 132.267v401.067c-4.267 68.267-64 132.267-136.533 132.267zM512 162.133c-115.2 0-204.8 93.867-204.8 204.8s93.867 204.8 204.8 204.8 204.8-93.867 204.8-204.8c0-110.933-89.6-204.8-204.8-204.8zM934.4 554.667h-132.267v64h132.267v-64z" />
<glyph unicode="&#xe613;" glyph-name="video" d="M0 666.764v-465.455c0-93.091 93.091-93.091 93.091-93.091h553.891c0 0 93.091 0 93.091 93.091v465.455c0 93.091-93.091 93.091-93.091 93.091h-553.891c0 0-93.091 0-93.091-93.091zM795.927 285.091l228.073-181.527v651.636l-228.073-181.527v-288.582z" />
<glyph unicode="&#xe614;" glyph-name="website" d="M1024 477.867v-51.2l-375.467-217.6v89.6l268.8 153.6-268.8 145.067v89.6l375.467-209.067zM0 477.867v-51.2l375.467-217.6v89.6l-268.8 153.6 268.8 145.067v89.6l-375.467-209.067z" />
</font>
</defs>
</svg>
